<?xml version="1.0" encoding="UTF-8"?>
<svg id="Artwork" xmlns="http://www.w3.org/2000/svg" viewBox="0 0 197 198.31">
  <defs>
    <style>
      .cls-1 {
        fill: #364a9f;
      }

      .cls-1, .cls-2, .cls-3 {
        stroke-width: 0px;
      }

      .cls-2 {
        fill: #b98600;
      }

      .cls-3 {
        fill: #fff;
      }
    </style>
  </defs>
  <path class="cls-1" d="M192.77,46.21c-5.64-5.64-14.79-5.64-20.43,0-2.96,2.96-4.32,6.81-4.18,10.66h-.05s1.64,10.1-7.37,19.11-18.41,8.08-19.91,8.08h-.05c-.14,0-.28.05-.42.05-.09,0-.23-.05-.33,0v-.05s-10.1,1.64-19.11-7.37c-8.5-8.5-8.12-17.33-8.08-19.58,0-.23.05-.42.05-.66,0-.52-.09-1.03-.14-1.55-.14-2.86.28-10.8,7.47-17.99,9.02-9.02,18.41-8.08,19.91-8.08h.05c3.8.09,7.61-1.31,10.52-4.18,5.64-5.64,5.64-14.79,0-20.43s-14.79-5.64-20.43,0c-2.91,2.91-4.27,6.72-4.18,10.52v.05c0,1.5.94,10.89-8.08,19.91-7.23,7.23-15.12,7.61-17.99,7.47-1.08-.09-2.11-.09-3.15,0-2.91.09-10.75-.33-17.94-7.47-9.02-9.02-8.08-18.41-8.08-19.91v-.05c.09-3.8-1.31-7.61-4.18-10.52-5.64-5.64-14.79-5.64-20.43,0s-5.64,14.79,0,20.43c2.91,2.91,6.72,4.27,10.52,4.18h.05c1.5,0,10.89-.94,19.91,8.08,7.18,7.18,7.61,15.07,7.47,17.94-.05.52-.14,1.08-.14,1.6,0,.19.05.42.05.61.05,2.16.47,11.08-8.08,19.58-9.02,9.02-19.11,7.37-19.11,7.37v.05h-.89v-.05s-10.1,1.64-19.11-7.37c-9.02-9.02-8.08-18.41-8.08-19.91v-.05c.09-3.8-1.31-7.61-4.18-10.52-5.64-5.64-14.79-5.64-20.43,0s-5.64,14.79,0,20.43c2.91,2.91,6.72,4.27,10.52,4.18l.05.05c1.5,0,10.89-.94,19.91,8.08,9.02,9.02,7.37,19.11,7.37,19.11h.05v1.08c.05.61.09,1.22.19,1.83.05.28.09.52.19.8.14.7.33,1.36.61,2.02.05.14.14.28.19.47.33.75.7,1.46,1.13,2.16.05.05.09.09.14.19.52.75,1.08,1.5,1.74,2.16,5.64,5.64,14.79,5.64,20.43,0,.66-.66,1.27-1.41,1.74-2.16.05-.05.09-.09.14-.19.47-.7.8-1.41,1.13-2.16.05-.14.14-.33.19-.47.23-.66.42-1.36.61-2.02.05-.28.14-.52.19-.8.09-.61.14-1.22.19-1.83,0-.33.05-.7,0-1.03v-.05h.05s-1.64-10.1,7.37-19.11c8.5-8.5,17.42-8.12,19.58-8.08.23,0,.42.05.66.05.19,0,.42-.05.61-.05,2.16-.05,11.08-.47,19.58,8.08,9.02,9.02,7.37,19.11,7.37,19.11h.05v1.08c.05.61.09,1.17.19,1.74.05.28.14.61.19.89.14.66.33,1.31.56,1.97.05.19.14.33.23.52.33.75.66,1.46,1.13,2.11.05.05.09.14.14.19.52.75,1.08,1.46,1.74,2.16.7.7,1.46,1.31,2.25,1.83.19.09.38.19.52.28.66.38,1.31.75,1.97,1.03h.05c5.21,2.11,11.41,1.03,15.64-3.19.7-.7,1.36-1.5,1.88-2.3.05-.09.09-.19.14-.28.47-.75.85-1.5,1.17-2.3h0c.7-1.78,1.03-3.71.99-5.59v-.05c0-1.5-.94-10.89,8.08-19.91s19.11-7.37,19.11-7.37v-.05c3.85.14,7.7-1.27,10.66-4.18,5.59-5.59,5.59-14.75-.05-20.38Z"/>
  <path class="cls-2" d="M85.14,119.23c-7.33,7.33-7.33,19.25,0,26.63,7.37,7.37,19.25,7.33,26.63,0s7.37-19.25,0-26.63c-7.37-7.33-19.3-7.33-26.63,0Z"/>
  <path class="cls-3" d="M30.47,197.86h-5.25v-19.42h-6.56v-4.36h18.37v4.36h-6.56v19.42ZM48.48,197.86h-5.18v-25.54h5.18v6.28l-.25,3.29c.68-.64,1.47-1.22,2.38-1.74.91-.53,1.98-.79,3.22-.79h0c1.96,0,3.38.65,4.27,1.94.89,1.29,1.33,3.07,1.33,5.33h0v11.23h-5.19v-10.56c0-1.35-.19-2.26-.56-2.75-.37-.49-.96-.74-1.77-.74h0c-.69,0-1.27.16-1.76.47-.49.31-1.05.75-1.67,1.32h0v12.26ZM74.98,198.31h0c-1.73,0-3.27-.38-4.64-1.14-1.37-.75-2.46-1.84-3.27-3.25-.81-1.41-1.21-3.1-1.21-5.08h0c0-1.47.23-2.79.7-3.96.47-1.16,1.11-2.16,1.92-2.99.81-.83,1.73-1.46,2.74-1.89,1.01-.43,2.05-.64,3.12-.64h0c1.71,0,3.12.37,4.25,1.12,1.13.75,1.98,1.77,2.55,3.08.57,1.3.85,2.78.85,4.44h0c0,.49-.02.95-.07,1.36-.04.42-.09.75-.16.98h-10.88c.15.89.45,1.63.9,2.22.45.59,1,1.03,1.65,1.32.65.29,1.39.43,2.22.43h0c.71,0,1.37-.1,2-.31.63-.2,1.27-.49,1.94-.88h0l1.72,3.17c-.89.62-1.9,1.11-3.02,1.47-1.12.37-2.22.55-3.31.55ZM70.82,186.88h6.75c0-1.04-.25-1.89-.74-2.56-.49-.66-1.29-.99-2.4-.99h0c-.55,0-1.09.13-1.6.4-.51.27-.94.66-1.29,1.17-.35.51-.59,1.17-.72,1.98ZM101.51,197.86h-5.32l7.49-23.78h6.21l7.49,23.78h-5.47l-3.2-12.13c-.35-1.21-.68-2.49-1-3.82-.32-1.33-.64-2.62-.96-3.86h-.12c-.3,1.26-.62,2.55-.95,3.87-.33,1.33-.65,2.6-.97,3.81h0l-3.2,12.13ZM112.45,192.07h-11.39v-4.03h11.39v4.03ZM128.16,197.86h-5.21v-23.78h5.21v23.78ZM138.98,197.86h-5.31l7.48-23.78h6.21l7.49,23.78h-5.47l-3.2-12.13c-.34-1.21-.67-2.49-.99-3.82-.32-1.33-.64-2.62-.96-3.86h-.13c-.3,1.26-.62,2.55-.95,3.87-.33,1.33-.65,2.6-.97,3.81h0l-3.2,12.13ZM149.92,192.07h-11.39v-4.03h11.39v4.03ZM162.47,197.86h-5.32l7.49-23.78h6.21l7.49,23.78h-5.47l-3.2-12.13c-.35-1.21-.68-2.49-1-3.82-.32-1.33-.64-2.62-.96-3.86h-.12c-.3,1.26-.62,2.55-.95,3.87-.33,1.33-.65,2.6-.97,3.81h0l-3.2,12.13ZM173.41,192.07h-11.39v-4.03h11.39v4.03Z"/>
</svg>